<svg xmlns="http://www.w3.org/2000/svg" viewBox="0 0 512 512" role="img" aria-label="Dental Lecture Translator">
  <rect width="512" height="512" rx="96" fill="#0f766e"/>
  <path d="M169 104c-35 0-62 28-62 64 0 19 7 40 18 61 9 17 13 36 12 56-2 51 18 122 53 122 24 0 24-55 35-90 6-20 16-31 31-31s25 11 31 31c11 35 11 90 35 90 35 0 55-71 53-122-1-20 3-39 12-56 11-21 18-42 18-61 0-36-27-64-62-64-22 0-40 10-57 18-17 8-43 8-60 0-17-8-35-18-57-18z" fill="#ffffff"/>
  <path d="M153 169h205M256 142v246" stroke="#99f6e4" stroke-width="28" stroke-linecap="round"/>
</svg>
